<?xml version="1.0" standalone="no"?>
<!DOCTYPE svg PUBLIC "-//W3C//DTD SVG 20010904//EN"
 "http://www.w3.org/TR/2001/REC-SVG-20010904/DTD/svg10.dtd">
<svg version="1.0" xmlns="http://www.w3.org/2000/svg"
 width="96.000000pt" height="96.000000pt" viewBox="0 0 96.000000 96.000000"
 preserveAspectRatio="xMidYMid meet">
<metadata>
Created by potrace 1.11, written by Peter Selinger 2001-2013
</metadata>
<g transform="translate(0.000000,96.000000) scale(0.100000,-0.100000)"
fill="#000000" stroke="none">
<path d="M737 873 c-1 0 -72 -4 -157 -7 -290 -12 -354 -16 -367 -28 -9 -7 -12
-24 -8 -52 2 -23 7 -100 10 -173 3 -73 8 -156 12 -185 3 -29 7 -107 8 -173 1
-66 3 -124 3 -130 1 -6 78 -10 206 -10 l205 0 96 94 97 94 -6 91 c-3 50 -9
127 -12 171 -3 44 -7 128 -8 187 -2 58 -7 111 -10 117 -5 8 -61 12 -69 4z"/>
</g>
</svg>
